<?xml version="1.0" standalone="no"?>
<!DOCTYPE svg PUBLIC "-//W3C//DTD SVG 20010904//EN"
 "http://www.w3.org/TR/2001/REC-SVG-20010904/DTD/svg10.dtd">
<svg version="1.0" xmlns="http://www.w3.org/2000/svg"
 width="860.000000pt" height="860.000000pt" viewBox="0 0 860.000000 860.000000"
 preserveAspectRatio="xMidYMid meet">
<metadata>
Created by potrace 1.14, written by Peter Selinger 2001-2017
</metadata>
<g transform="translate(0.000000,860.000000) scale(0.100000,-0.100000)"
fill="#000000" stroke="none">
<path d="M4220 8574 c-299 -40 -542 -139 -687 -280 -19 -19 -39 -34 -44 -34
-5 0 -9 -3 -9 -7 0 -5 -15 -24 -33 -44 -53 -59 -63 -73 -109 -150 -54 -89
-116 -238 -134 -321 -1 -5 -3 -10 -4 -13 -3 -6 -4 -9 -13 -55 -4 -19 -9 -46
-12 -60 -3 -14 -8 -41 -11 -60 -3 -19 -7 -42 -9 -50 -25 -88 -24 -587 1 -890
14 -168 6 -419 -16 -525 -5 -22 -11 -56 -15 -75 -3 -19 -8 -48 -12 -65 -4 -16
-6 -33 -5 -37 1 -4 -5 -23 -13 -42 -9 -20 -15 -38 -15 -41 -1 -8 -7 -26 -31
-95 -13 -36 -24 -67 -24 -70 -3 -16 -89 -186 -96 -188 -5 -2 -9 -10 -9 -18 0
-8 -8 -27 -19 -42 -10 -15 -36 -54 -57 -87 -40 -63 -91 -133 -110 -150 -14
-13 -211 -268 -244 -315 -13 -19 -27 -37 -30 -40 -3 -3 -23 -32 -45 -65 -22
-33 -42 -62 -45 -65 -6 -5 -38 -53 -55 -82 -5 -9 -47 -76 -92 -148 -46 -71
-83 -132 -83 -134 0 -3 -20 -38 -45 -80 -24 -42 -41 -76 -37 -76 4 0 2 -4 -3
-8 -10 -7 -66 -117 -120 -236 -57 -125 -153 -392 -169 -471 -3 -11 -11 -49
-20 -85 -8 -36 -17 -81 -20 -100 -3 -19 -8 -46 -11 -59 -16 -82 -22 -256 -12
-397 6 -84 5 -93 -14 -110 -26 -23 -121 -141 -172 -213 -57 -80 -97 -120 -147
-150 -46 -26 -64 -34 -180 -75 -36 -13 -92 -36 -125 -51 -65 -30 -164 -103
-165 -121 0 -7 -6 -14 -13 -17 -18 -7 -76 -124 -84 -172 -8 -45 -8 -197 0
-235 7 -32 19 -118 22 -150 1 -14 6 -47 10 -75 8 -58 8 -53 1 -127 -2 -32 -8
-63 -12 -69 -8 -14 -30 -92 -54 -192 -17 -73 -24 -230 -11 -252 3 -5 7 -19 8
-30 8 -51 77 -139 133 -171 19 -10 37 -22 40 -26 18 -24 233 -76 385 -93 28
-3 66 -8 85 -10 19 -3 60 -7 90 -10 30 -4 67 -8 81 -10 14 -3 41 -7 60 -9 55
-7 101 -16 150 -27 26 -6 55 -12 65 -14 11 -2 19 -4 19 -5 0 -1 11 -3 25 -6
24 -4 53 -15 92 -35 10 -5 23 -9 29 -9 5 0 50 -20 99 -44 48 -25 91 -42 94
-39 3 4 6 1 6 -5 0 -7 9 -12 20 -12 11 0 20 -4 20 -8 0 -8 170 -68 183 -64 4
1 7 -2 7 -6 0 -4 8 -8 18 -9 9 -1 44 -8 77 -16 103 -26 146 -30 290 -31 156 0
193 4 293 38 149 51 265 143 334 264 24 41 35 52 56 53 35 2 79 6 117 13 17 2
48 7 70 11 39 6 62 10 115 20 60 12 198 36 230 40 19 3 51 7 70 11 19 3 63 7
97 8 35 0 63 3 63 6 0 13 247 -2 375 -23 40 -7 124 -19 155 -22 14 -2 54 -6
90 -10 90 -10 141 -13 243 -14 73 -1 87 -4 87 -17 0 -20 60 -148 72 -152 4 -2
8 -9 8 -15 0 -12 72 -100 110 -134 66 -60 90 -76 155 -108 103 -51 183 -68
305 -68 127 0 177 9 298 49 66 22 272 130 292 154 3 3 34 28 70 57 57 45 149
135 246 244 51 56 105 102 189 161 69 47 117 76 265 154 14 7 86 43 160 80
232 113 325 178 389 271 102 149 33 370 -194 616 -43 47 -97 160 -108 228 -2
13 -6 31 -9 39 -3 8 -13 51 -23 95 -24 111 -50 188 -82 247 -41 75 -119 152
-181 177 -18 8 -35 17 -37 22 -3 4 6 52 20 106 15 54 28 114 31 133 2 19 6 42
9 50 15 53 23 364 10 450 -2 19 -7 60 -11 90 -3 30 -8 58 -10 61 -2 4 -6 24
-10 44 -3 21 -8 47 -11 59 -2 11 -7 32 -10 46 -2 14 -7 32 -10 40 -3 8 -8 24
-10 35 -6 27 -9 37 -16 55 -3 8 -13 38 -22 65 -25 72 -64 173 -87 225 -71 159
-193 391 -210 398 -5 2 -8 8 -8 13 0 16 -174 282 -238 364 -4 6 -21 28 -37 50
-17 22 -57 74 -90 115 -33 41 -67 83 -75 94 -8 10 -24 29 -35 42 -37 42 -73
87 -154 194 -11 14 -29 36 -40 50 -32 38 -33 40 -86 120 -28 41 -52 77 -55 80
-14 12 -102 172 -133 240 -33 72 -63 152 -73 195 -8 31 -10 39 -17 60 -3 11
-8 36 -11 55 -3 19 -8 46 -12 60 -3 14 -7 203 -8 420 -3 363 -12 624 -23 643
-3 4 -6 31 -8 60 -4 55 -17 144 -29 202 -51 245 -131 450 -239 610 -69 102
-264 285 -303 285 -8 0 -14 4 -14 9 0 11 -158 83 -210 97 -8 2 -49 12 -90 23
-41 11 -93 22 -115 26 -78 13 -399 12 -495 -1z"/>
</g>
</svg>
